<svg width="260" height="57" viewBox="0 0 260 57" fill="none" xmlns="http://www.w3.org/2000/svg">
<path d="M254.671 13.2012C252.598 10.5193 249.414 8.95786 246.04 8.95786H240.06C239.422 8.95786 238.796 9.01297 238.182 9.12318C237.568 9.01909 236.942 8.95786 236.304 8.95786H236.055C234.232 5.42478 230.573 3.00612 226.349 3.00612H220.259C217.791 3.00612 215.518 3.83275 213.689 5.22272C211.86 3.83888 209.593 3.00612 207.131 3.00612H201.041C196.678 3.00612 192.916 5.58398 191.159 9.30688C190.296 9.08645 189.397 8.95786 188.461 8.95786H182.334C181.909 8.95786 181.49 8.98235 181.076 9.03134C180.663 8.98235 180.244 8.95786 179.818 8.95786H176.457C176.001 8.46188 175.558 8.05163 175.163 7.72097C172.027 5.07576 167.936 3.74091 163.001 3.74091H154.249C149.454 3.74091 145.394 6.85148 143.917 11.1745C141.529 9.68652 138.229 8.51699 133.762 8.51699C131.701 8.51699 129.775 8.78029 127.994 9.28239C126 7.13927 123.162 5.79217 120.014 5.79217H114.508C111.542 5.79217 108.831 6.99232 106.85 8.95174H102.802C102.376 8.95174 101.957 8.97623 101.544 9.02521C101.131 8.97623 100.711 8.95174 100.286 8.95174H99.4896C97.6663 5.41866 94.0075 3 89.7836 3H83.7667C82.387 3 81.0803 3.26942 79.8648 3.73478H68.4145C64.2756 3.73478 60.6715 6.05547 58.8118 9.47221C57.7542 9.13543 56.642 8.95174 55.5055 8.95174H49.5251C48.8869 8.95174 48.2609 9.00684 47.6471 9.11706C47.0332 9.01297 46.4072 8.95174 45.7691 8.95174H44.59C42.6573 5.81666 39.2174 3.73478 35.3033 3.73478H27.2079C26.4725 3.73478 25.7553 3.80826 25.0564 3.94909C24.3575 3.80826 23.6403 3.73478 22.9049 3.73478H14.7C8.81078 3.74091 3.97296 8.44963 3.77239 14.3891L3.00661 37.2041C2.90329 40.1922 4.0155 43.0885 6.07583 45.2377C8.13616 47.387 10.9744 48.5994 13.9403 48.5994H19.5926C19.9998 48.5994 20.4009 48.5749 20.7959 48.532C21.191 48.5749 21.5921 48.5994 21.9993 48.5994H27.8703C28.2897 48.5994 28.703 48.5749 29.1102 48.532C29.5174 48.581 29.9307 48.5994 30.35 48.5994H31.4926C33.4132 51.8508 36.92 54 40.8948 54H44.5414C49.1118 54 52.8921 52.8244 55.779 50.5098C57.6084 49.0402 59.0731 47.1237 60.1732 44.7969C62.1788 47.1237 65.1265 48.5994 68.4266 48.5994H74.6623C76.7287 48.5994 78.6614 48.0115 80.3085 47.0073C82.6727 48.3054 85.432 48.9667 88.5559 48.9667H90.5615C91.771 48.9667 92.9257 48.7586 94.0197 48.3912C95.3993 48.7647 96.8762 48.9667 98.4382 48.9667C99.8178 48.9667 101.173 48.8137 102.486 48.5075C102.705 48.5197 102.923 48.5259 103.142 48.5259H108.94C110.144 48.5259 111.299 48.3238 112.38 47.9625C113.979 48.5626 115.881 48.9667 118.112 48.9667C119.898 48.9667 121.861 48.832 124.116 48.5565C125.137 48.434 126.11 48.1646 127.021 47.7788C129.112 48.5565 131.397 48.9667 133.804 48.9667C136.934 48.9667 140.082 48.4769 143.164 47.5156C144.507 47.0992 145.716 46.4317 146.762 45.5867C148.719 47.4482 151.356 48.5994 154.262 48.5994H163.196C165.931 48.5994 168.435 48.1401 170.653 47.2767C172.78 48.3667 175.248 48.9667 177.964 48.9667C179.344 48.9667 180.699 48.8137 182.012 48.5075C182.231 48.5197 182.45 48.5259 182.669 48.5259H188.467C189.737 48.5259 190.952 48.2993 192.083 47.8952C193.961 48.5932 196.015 48.9667 198.203 48.9667C199.437 48.9667 200.634 48.832 201.789 48.5749C202.925 48.8259 204.165 48.9667 205.496 48.9667C205.715 48.9667 205.928 48.9606 206.147 48.9484L208.59 48.8014C209.726 48.7341 210.82 48.483 211.841 48.085C213.574 48.6606 215.445 48.9667 217.427 48.9667C218.661 48.9667 219.858 48.832 221.013 48.5749C221.377 48.6545 221.754 48.7218 222.137 48.7769C224.076 51.9304 227.534 54 231.436 54H235.082C239.653 54 243.433 52.8244 246.32 50.5098C249.116 48.2626 251.073 45.005 252.148 40.78L256.67 22.6677C257.491 19.3734 256.761 15.8832 254.689 13.2012H254.671Z" fill="white" stroke="white" stroke-width="5" stroke-miterlimit="10"/>
<path d="M29.9082 38.2227H23.8658V25.7529H23.5194L21.2486 38.2227H15.0522L12.897 25.7529H12.5121V38.2227H6.54663L7.35486 14.3223H16.0144L18.1697 27.2539H18.4776L20.5559 14.3223H29.1L29.9082 38.2227Z" fill="#C325C9"/>
<path d="M50.4217 19.7874L45.6494 38.7615C45.1619 40.6602 44.4434 41.988 43.4941 42.7449C42.5447 43.5018 40.9924 43.8802 38.8372 43.8802H34.9885L34.4112 38.9154H36.5664C37.4388 38.9154 37.875 38.569 37.875 37.8763C37.875 37.7223 37.8237 37.3888 37.721 36.8756L33.295 19.7874H40.1457L41.8776 31.295H42.224L44.1099 19.7874H50.4217Z" fill="#C325C9"/>
<path d="M76.9778 20.2108H70.6274V23.7901H75.7462V28.8703H70.6274V38.2227H64.0461V14.3223H77.3626L76.9778 20.2108Z" fill="#C325C9"/>
<path d="M80.2491 33.9891V13.5526H86.5995V31.9493C86.5995 32.3855 86.6957 32.6934 86.8881 32.873C87.0806 33.0526 87.4205 33.1424 87.9081 33.1424L87.4077 38.6076H85.2909C83.5975 38.6076 82.3339 38.2548 81.5 37.5492C80.6661 36.8436 80.2491 35.6569 80.2491 33.9891Z" fill="#C325C9"/>
<path d="M95.7209 38.6075C92.6676 38.6075 91.141 36.9141 91.141 33.5273V19.7874H97.6838V31.9493C97.6838 32.5907 97.966 32.9115 98.5305 32.9115C99.2489 32.9115 99.8519 32.7319 100.339 32.3726V19.7874H106.805V38.1457H100.686V36.7986H100.532C99.1206 38.0046 97.517 38.6075 95.7209 38.6075Z" fill="#C325C9"/>
<path d="M121.43 38.2612C119.532 38.4921 117.883 38.6075 116.485 38.6075C115.086 38.6075 113.996 38.2419 113.213 37.5107C112.431 36.7794 112.039 35.5158 112.039 33.7197V24.7907H110.192V20.0183H112.347L112.694 16.4775H118.505V20.0183H121.931L121.661 24.7907H118.467V32.4496C118.467 32.9884 118.723 33.2579 119.236 33.2579C119.288 33.2579 120.083 33.2194 121.623 33.1424L121.43 38.2612Z" fill="#C325C9"/>
<path d="M133.015 19.3256C135.658 19.3256 137.55 19.9606 138.692 21.2307C139.833 22.5007 140.404 24.316 140.404 26.6766C140.404 26.9845 140.314 28.37 140.135 30.8332H131.36C131.36 32.7575 132.245 33.7197 134.015 33.7197C134.862 33.7197 136.517 33.4246 138.98 32.8345L139.519 37.6069C137.364 38.274 135.209 38.6075 133.053 38.6075C130.41 38.6075 128.384 37.7416 126.972 36.0097C125.561 34.2777 124.856 31.9236 124.856 28.9473C124.856 22.5328 127.575 19.3256 133.015 19.3256ZM132.861 24.8292C132.194 24.8292 131.758 25.0537 131.552 25.5027C131.347 25.9517 131.244 26.6381 131.244 27.5618H134.593V26.6381C134.593 25.4322 134.015 24.8292 132.861 24.8292Z" fill="#C325C9"/>
<path d="M171.463 31.3335C171.463 35.9263 169 38.2227 164.074 38.2227H154.644V14.3223H163.881C166.319 14.3223 168.128 14.8162 169.308 15.804C170.488 16.7918 171.078 18.3634 171.078 20.5187C171.078 22.6739 170.193 24.316 168.423 25.445V25.6759C170.45 26.4713 171.463 28.3572 171.463 31.3335ZM163.804 24.021C164.035 23.6618 164.151 23.0267 164.151 22.1159C164.151 21.205 164.029 20.5636 163.785 20.1915C163.541 19.8195 163.124 19.6335 162.534 19.6335H161.303V24.5598H162.573C163.163 24.5598 163.573 24.3802 163.804 24.021ZM164.093 33.431C164.362 33.0847 164.497 32.3662 164.497 31.2758C164.497 30.1853 164.356 29.4156 164.074 28.9666C163.792 28.5175 163.278 28.293 162.534 28.293H161.303V33.9506H162.534C163.304 33.9506 163.824 33.7774 164.093 33.431Z" fill="#C325C9"/>
<path d="M179.661 38.6075C176.608 38.6075 175.081 36.9141 175.081 33.5273V19.7874H181.624V31.9493C181.624 32.5907 181.906 32.9115 182.471 32.9115C183.189 32.9115 183.792 32.7319 184.279 32.3726V19.7874H190.745V38.1457H184.626V36.7986H184.472C183.061 38.0046 181.457 38.6075 179.661 38.6075Z" fill="#C325C9"/>
<path d="M211.291 38.4536L208.712 38.6076C206.737 38.6076 205.531 37.9533 205.094 36.6447H204.902C204.055 37.9533 202.76 38.6076 201.015 38.6076C198.706 38.6076 197.083 37.7993 196.146 36.1829C195.21 34.5664 194.741 32.161 194.741 28.9666C194.741 25.7722 195.267 23.3667 196.319 21.7503C197.371 20.1338 198.885 19.3256 200.861 19.3256C202.221 19.3256 203.273 19.6463 204.017 20.2878V13.5526H210.444V32.5651C210.444 33.0526 210.547 33.3797 210.752 33.5465C210.957 33.7133 211.329 33.7967 211.868 33.7967L211.291 38.4536ZM202.58 24.7523C202.028 24.7523 201.663 25.0794 201.483 25.7337C201.303 26.388 201.214 27.3245 201.214 28.5432C201.214 29.762 201.227 30.5894 201.252 31.0256C201.278 31.4618 201.336 31.9044 201.425 32.3534C201.515 32.8024 201.656 33.1103 201.849 33.2771C202.041 33.4439 202.362 33.5273 202.811 33.5273C203.26 33.5273 203.728 33.4118 204.216 33.1809V25.2141C203.677 24.9062 203.132 24.7523 202.58 24.7523Z" fill="#C325C9"/>
<path d="M231.573 38.4536L228.995 38.6076C227.019 38.6076 225.813 37.9533 225.377 36.6447H225.185C224.338 37.9533 223.042 38.6076 221.297 38.6076C218.988 38.6076 217.365 37.7993 216.429 36.1829C215.492 34.5664 215.024 32.161 215.024 28.9666C215.024 25.7722 215.55 23.3667 216.602 21.7503C217.654 20.1338 219.168 19.3256 221.143 19.3256C222.503 19.3256 223.555 19.6463 224.299 20.2878V13.5526H230.727V32.5651C230.727 33.0526 230.829 33.3797 231.035 33.5465C231.24 33.7133 231.612 33.7967 232.151 33.7967L231.573 38.4536ZM222.863 24.7523C222.311 24.7523 221.945 25.0794 221.766 25.7337C221.586 26.388 221.496 27.3245 221.496 28.5432C221.496 29.762 221.509 30.5894 221.535 31.0256C221.56 31.4618 221.618 31.9044 221.708 32.3534C221.798 32.8024 221.939 33.1103 222.131 33.2771C222.324 33.4439 222.644 33.5273 223.093 33.5273C223.542 33.5273 224.011 33.4118 224.498 33.1809V25.2141C223.959 24.9062 223.414 24.7523 222.863 24.7523Z" fill="#C325C9"/>
<path d="M251.51 19.7874L246.737 38.7615C246.25 40.6602 245.531 41.988 244.582 42.7449C243.633 43.5018 242.08 43.8802 239.925 43.8802H236.076L235.499 38.9154H237.654C238.527 38.9154 238.963 38.569 238.963 37.8763C238.963 37.7223 238.912 37.3888 238.809 36.8756L234.383 19.7874H241.234L242.966 31.295H243.312L245.198 19.7874H251.51Z" fill="#C325C9"/>
</svg>
