<svg width="243" height="182" viewBox="0 0 243 182" fill="none" xmlns="http://www.w3.org/2000/svg">
<path d="M32.4026 206.258L31.7456 206.015C38.1538 188.651 43.0337 172.992 49.3976 155.096C52.5648 146.163 56.3153 137.968 67.286 135.835C82.2138 132.837 95.0228 147.891 109.729 143.49C139.452 128.769 149.286 58.7222 169.692 30.1732C196.232 -15.6587 254.142 82.3395 259.458 8.85931L260.152 8.93312C254.541 83.5355 196.314 -14.6694 170.282 30.535C149.825 59.1873 140.035 129.537 109.936 144.162C94.8678 148.621 82.3836 133.679 67.4189 136.521C56.8025 138.588 53.1481 146.599 50.0547 155.332C43.6834 173.228 38.8035 188.894 32.3953 206.258H32.4026Z" fill="#C325C9"/>
<path d="M32.9269 208.702L32.351 208.473C39.4532 190.887 44.8869 175.266 52.1367 157.053C55.5327 148.4 59.7704 139.777 70.7707 137.739C85.7207 134.89 98.382 150.054 113.14 145.787C143.018 131.353 153.501 61.3947 174.166 33.0451C201.12 -12.4694 258.1 86.0308 264.117 12.558L264.729 12.6319C258.439 87.1013 201.142 -11.6351 174.682 33.3699C153.966 61.8155 143.527 132.033 113.31 146.385C98.2122 150.696 85.8683 135.635 70.8814 138.352C60.1912 140.331 56.0421 148.791 52.7125 157.281C45.4627 175.487 40.0216 191.124 32.9195 208.702H32.9269Z" fill="#C325C9"/>
<path d="M33.4583 211.153L32.9637 210.932C40.7524 193.169 46.8432 177.451 54.883 159.016C58.5226 150.652 63.3214 141.571 74.2626 139.652C89.2347 136.957 101.756 152.232 116.551 148.097C146.569 133.96 157.717 64.0821 178.647 35.9245C206.015 -9.27989 262.057 89.7223 268.782 16.2717L269.321 16.3381C263.932 73.089 229.595 28.6008 201.312 24.1121C161.866 19.5718 153.427 135.754 116.698 148.614C101.571 152.778 89.3676 137.599 74.3586 140.183C63.6832 142.058 58.9656 150.999 55.3776 159.231C47.3305 177.665 41.2397 193.383 33.4583 211.146V211.153Z" fill="#C325C9"/>
<path d="M33.99 213.589L33.5692 213.39C42.0445 195.428 48.6889 179.71 57.622 160.98C61.6456 152.534 66.8504 143.365 77.7547 141.556C92.8228 139.024 104.879 154.306 119.962 150.393C150.127 136.551 161.932 66.7546 183.121 38.7963C210.902 -6.09803 266.007 93.4136 273.434 19.9703L273.891 20.0294C267.985 76.6843 234.076 31.8565 205.86 27.1316C166.429 22.1925 156.905 138.3 120.072 150.836C104.916 154.853 92.8597 139.563 77.8211 142.014C67.1384 143.786 62.0074 152.837 58.0355 161.18C49.095 179.902 42.4579 195.627 33.9826 213.589H33.99Z" fill="#C325C9"/>
<path d="M34.5216 216.033L34.1747 215.856C43.344 197.709 50.5052 181.955 60.3611 162.951C64.7834 154.417 70.4016 145.166 81.2395 143.468C103.255 141.704 119.061 168.09 137.887 141.106C159.511 118.042 177.805 23.0859 210.474 29.782C238.336 34.4996 271.891 79.8221 278.092 23.6765L278.476 23.7356C272.053 80.3019 238.565 35.1271 210.422 30.1659C171.006 24.843 160.397 140.855 123.461 153.066C108.275 156.927 96.3593 141.527 81.2911 143.845C70.6305 145.513 65.0713 154.668 60.6934 163.121C50.8374 182.117 43.6688 197.879 34.5069 216.018L34.5216 216.033Z" fill="#C325C9"/>
<path d="M35.0533 218.47L34.7801 218.322C44.6287 200.005 52.2771 184.162 63.1002 164.923C68.2607 155.665 74.4474 146.894 84.7242 145.381C106.762 143.845 122.324 170.364 141.423 143.535C163.254 120.7 182.457 25.8915 215.022 32.8977C242.869 37.9031 276.01 83.5135 282.751 27.3901L283.053 27.4345C276.114 83.9122 243.054 38.3904 214.977 33.2004C182.774 26.2163 163.335 121.158 141.667 143.712C122.265 170.733 106.924 144.251 84.7611 145.683C74.6172 147.175 68.4822 155.879 63.3586 165.07C52.5355 184.31 44.8797 200.153 35.0385 218.462L35.0533 218.47Z" fill="#C325C9"/>
<path d="M35.5847 220.913L35.3853 220.795C45.9131 202.316 54.1226 186.347 65.839 166.901C71.472 157.54 78.0796 148.688 88.216 147.3C110.283 145.986 125.602 172.637 144.974 145.971C167.012 123.343 187.115 28.7262 219.584 36.0203C247.41 41.3137 280.137 87.2194 287.416 31.1182L287.645 31.1551C280.189 87.5442 247.557 41.6828 219.547 36.2491C187.359 28.9624 167.049 123.727 145.152 146.111C125.514 172.94 110.416 146.296 88.2456 147.529C78.2051 148.909 71.6418 157.71 66.0384 167.019C54.3294 186.458 46.1124 202.434 35.5847 220.906V220.913Z" fill="#C325C9"/>
<path d="M121.445 145.668C121.01 145.41 120.589 145.166 120.146 144.908C124.421 140.855 130.157 143.35 132.726 147.979C132.756 147.964 132.785 147.957 132.815 147.942C129.862 138.98 121.29 143.601 114.52 142.435C114.52 142.457 114.506 142.479 114.498 142.494C120.028 145.735 125.557 148.983 131.087 152.231C126.436 155.428 132.268 164.834 134.66 157.119C135.487 150.836 125.38 149.072 121.445 145.668Z" fill="#C325C9"/>
<path d="M156.594 70.328C155.937 69.9589 155.317 69.6119 154.653 69.2427C160.839 63.152 169.374 66.6588 173.287 73.4214C173.331 73.4066 173.368 73.3844 173.412 73.3697C168.052 59.7707 156.875 67.5226 146.281 65.7655C146.273 65.795 146.259 65.8245 146.251 65.8541C154.498 70.483 162.744 75.112 170.991 79.741C167.174 82.4357 167.853 91.0439 172.991 91.3687C175.996 90.2909 177.2 86.1049 176.21 83.3068C172.039 76.6993 162.803 74.8167 156.587 70.3354L156.594 70.328Z" fill="#C325C9"/>
<path d="M51.8263 165.89C51.5753 165.661 51.3317 165.439 51.0807 165.211C54.4398 163.158 57.8432 165.58 58.8768 168.968C58.899 168.968 58.9138 168.968 58.9359 168.961C58.3601 162.826 51.9149 164.443 47.7437 162.819C47.7363 162.833 47.7289 162.841 47.7216 162.856C50.8887 165.742 54.0485 168.636 57.2157 171.523C53.7311 172.962 56.2338 179.924 58.8768 175.214C60.1467 170.969 54.0116 168.813 51.8263 165.89Z" fill="#C325C9"/>
<path d="M193.242 27.0873C192.962 26.8141 192.696 26.5557 192.415 26.2826C196.321 24.0678 200.123 26.9618 201.171 30.8672C201.193 30.8672 201.216 30.8672 201.238 30.8599C200.81 23.8315 193.397 25.4336 188.695 23.4181C188.687 23.4329 188.68 23.4476 188.665 23.4624C192.172 26.8806 195.671 30.2988 199.178 33.7244C195.147 35.2378 197.738 43.2776 200.928 37.999C202.537 33.2002 195.619 30.5055 193.235 27.0873H193.242Z" fill="#C325C9"/>
<path d="M152.785 102.125C152.822 102.295 153.804 106.858 153.878 107.182H153.907L153.87 107.234C157.163 109.634 161.895 113.081 165.195 115.481C163.306 116.226 162.752 121.062 165.055 121.483C167.307 121.896 168.451 116.75 166.628 115.621H166.635C164.14 113.79 159.939 110.726 157.444 108.917C156.956 106.68 155.746 101.062 155.258 98.8031C156.794 99.9252 160.057 102.295 161.578 103.41C159.636 104.119 159.223 109.124 161.438 109.412C163.999 109.471 164.716 104.864 163.018 103.55C159.275 100.811 154.97 97.6809 151.242 94.9567C151.36 95.5325 152.63 101.387 152.793 102.125H152.785ZM154.35 98.146C154.793 100.206 156.07 106.134 156.536 108.26C156.314 108.105 154.808 106.998 154.55 106.813C153.981 104.17 152.933 99.3346 152.364 96.6916L154.35 98.1386V98.146Z" fill="#C325C9"/>
<path d="M61.3871 147.536C61.3798 147.617 61.0845 150.29 61.0623 150.467H61.0771L61.0475 150.489C62.3912 152.379 64.3181 155.096 65.6691 156.986C64.5174 157.045 63.3436 159.555 64.5027 160.205C65.6396 160.84 67.19 158.263 66.4148 157.326C65.396 155.886 63.6832 153.472 62.6644 152.047C62.8046 150.755 63.1664 147.499 63.314 146.193C63.9416 147.071 65.2705 148.946 65.8906 149.817C64.7168 149.847 63.5872 152.475 64.7241 153.029C66.0973 153.524 67.3155 151.169 66.6363 150.15C65.108 147.994 63.351 145.528 61.8301 143.38C61.7932 143.712 61.4167 147.101 61.3724 147.529L61.3871 147.536ZM62.9523 145.668C62.8194 146.864 62.4355 150.29 62.3026 151.523C62.214 151.397 61.5939 150.526 61.4905 150.386C61.6603 148.858 61.9704 146.052 62.1402 144.531L62.9523 145.668Z" fill="#C325C9"/>
<path d="M146.347 133.657C146.333 133.745 145.986 136.322 145.963 136.492H145.978L145.949 136.514C147.211 138.382 149.02 141.054 150.29 142.922C149.167 142.952 147.971 145.366 149.086 146.016C150.179 146.658 151.737 144.192 151.006 143.262C150.046 141.844 148.437 139.467 147.484 138.057C147.654 136.802 148.075 133.657 148.245 132.387C148.828 133.258 150.083 135.104 150.666 135.968C149.522 135.968 148.37 138.493 149.463 139.061C150.784 139.57 152.017 137.311 151.382 136.307C149.95 134.188 148.304 131.745 146.871 129.633C146.827 129.958 146.384 133.236 146.333 133.649L146.347 133.657Z" fill="#C325C9"/>
<path d="M78.6331 147.684C78.6331 147.743 78.6478 150.593 78.6552 150.755H78.67L78.6404 150.785C80.2572 152.579 82.5828 155.148 84.207 156.942C83.0184 157.141 82.1103 159.88 83.3949 160.412C84.65 160.929 85.9419 158.079 85.0191 157.2C83.7936 155.834 81.7264 153.546 80.5009 152.195C80.4935 150.836 80.4713 147.433 80.464 146.06C81.217 146.894 82.8264 148.673 83.5721 149.5C82.3613 149.677 81.5123 152.527 82.76 152.963C84.2365 153.31 85.211 150.726 84.3842 149.751C82.5459 147.714 80.427 145.366 78.5961 143.336C78.5961 143.683 78.6183 147.234 78.6257 147.684H78.6331Z" fill="#C325C9"/>
<path d="M177.835 46.061C176.151 44.6214 167.159 36.9951 165.284 35.4004L164.767 36.0132C166.17 37.2018 174.97 44.6657 176.144 45.6624C173.405 46.3859 172.349 51.9303 175.31 52.9417C178.396 53.4142 179.909 47.855 177.827 46.061H177.835ZM177.975 49.0289C178.071 51.0739 175.184 53.9089 174.439 50.7417C173.472 47.6483 178.049 43.7576 177.975 49.0289Z" fill="#C325C9"/>
<path d="M55.2448 187.263C54.2038 186.281 48.6815 181.061 47.5224 179.976L47.1681 180.353C48.0319 181.165 53.4434 186.274 54.1669 186.953C52.3803 187.329 51.5091 190.866 53.3843 191.611C55.3555 192.017 56.5146 188.496 55.2374 187.263H55.2448ZM55.23 189.182C55.2226 190.504 53.2662 192.224 52.8971 190.164C52.3286 188.149 55.5105 185.86 55.23 189.182Z" fill="#C325C9"/>
<path d="M131.833 101.328L125.403 122.317C128.311 124.487 132.047 127.285 134.971 129.471C133.686 130.438 134.409 135.48 135.975 135.51C137.82 135.569 137.318 130.165 136.004 129.493V129.478C133.597 127.618 130.046 124.997 127.617 123.173L130.534 113.649C132.608 115.2 136.004 117.739 138.086 119.297C136.801 120.264 137.525 125.307 139.09 125.336C140.936 125.395 140.434 119.991 139.12 119.319V119.305C136.713 117.444 133.162 114.823 130.733 113L133.649 103.476C135.724 105.026 139.12 107.566 141.202 109.124C139.917 110.091 140.64 115.133 142.206 115.163C144.051 115.222 143.549 109.818 142.235 109.146V109.131C139.828 107.271 136.277 104.65 133.848 102.826L131.833 101.32V101.328ZM126.909 122.649L126.303 122.199L129.219 112.675C129.345 112.771 129.692 113.029 129.825 113.125L126.909 122.649ZM130.024 112.476C129.921 112.394 129.522 112.099 129.419 112.025L132.335 102.502C132.46 102.598 132.807 102.856 132.94 102.952L130.024 112.476Z" fill="#C325C9"/>
<path d="M184.383 43.4991C187.617 46.6959 192.622 51.6644 195.841 54.8538C193.324 55.3558 191.884 61.4318 194.542 62.2069C197.236 63.1372 199.599 57.0317 197.576 55.2967V55.282C193.545 51.2805 188.163 45.9428 184.117 41.9414L183.468 42.5985L184.383 43.5065V43.4991Z" fill="#C325C9"/>
<path d="M198.304 53.6604L192.2 63.583L192.791 63.9466L198.895 54.0241L198.304 53.6604Z" fill="#C325C9"/>
<path d="M27.9584 209.854L27.3161 209.58C34.6619 192.585 40.3835 177.222 47.7145 159.695C51.3616 150.947 55.5476 142.974 66.6217 141.431C81.6898 139.253 93.6646 154.978 108.585 151.383C139.068 138.3 152.704 68.8881 174.631 41.4982C203.63 -2.82023 256.114 98.1901 265.431 25.1012L266.117 25.2119C256.453 99.3934 203.66 -1.83834 175.199 41.8895C153.214 69.3827 139.607 139.098 108.747 152.062C93.4579 155.694 81.8079 140.087 66.7103 142.117C55.998 143.609 51.9153 151.405 48.3494 159.954C41.0184 177.48 35.2894 192.851 27.9436 209.846L27.9584 209.854Z" fill="#6B0BBB"/>
<path d="M28.3568 212.327L27.7957 212.061C35.8428 194.889 42.1255 179.585 50.3573 161.8C54.2184 153.346 58.9212 144.967 70.0174 143.527C85.1003 141.497 96.9127 157.333 111.885 153.871C142.501 141.091 156.786 71.8044 178.964 44.6138C208.362 0.635006 259.886 102.088 269.897 29.0585L270.51 29.1618C260.167 103.181 208.34 1.46926 179.466 44.9682C157.229 72.2473 142.981 141.793 112.025 154.469C96.7133 157.953 85.2111 142.235 70.0987 144.133C59.3125 145.528 54.7131 153.745 50.9257 162.051C42.694 179.836 36.4113 195.147 28.3642 212.32L28.3568 212.327Z" fill="#6B0BBB"/>
<path d="M28.7482 214.8L28.2684 214.557C37.0095 197.244 43.9492 181.881 52.9857 163.918C57.0757 155.768 62.3617 146.96 73.3915 145.639C88.4892 143.764 100.161 159.696 115.156 156.373C145.905 143.897 160.84 74.7279 183.268 47.7515C213.058 4.10486 263.622 106.016 274.342 33.0377L274.873 33.1337C266.398 89.5007 234.534 43.2111 206.546 37.1942C167.403 30.5128 152.652 146.06 115.281 156.905C99.9545 160.242 88.5925 144.421 73.4654 146.185C62.7014 147.477 57.5039 156.145 53.4729 164.17C44.4365 182.139 37.4968 197.502 28.7556 214.815L28.7482 214.8Z" fill="#6B0BBB"/>
<path d="M29.1469 217.266L28.7408 217.045C38.1833 199.57 45.6694 184.236 55.6139 166.023C60.0878 157.806 65.7873 148.939 76.7728 147.728C91.9516 146.015 103.159 161.94 118.441 158.854C149.315 146.673 164.9 77.6294 187.587 50.867C217.775 7.55266 267.38 109.921 278.793 36.9875L279.251 37.0761C270.266 93.325 238.846 46.718 210.939 40.4648C171.833 33.3848 156.004 148.806 118.544 159.312C103.188 162.494 91.9812 146.569 76.8318 148.201C66.0678 149.389 60.4496 158.145 56.0273 166.259C46.0828 184.465 38.5967 199.813 29.1542 217.281L29.1469 217.266Z" fill="#6B0BBB"/>
<path d="M29.5457 219.732L29.2061 219.54C39.3499 201.917 47.3602 186.576 58.2349 168.142C63.1149 159.858 69.2278 150.932 80.1468 149.825C95.3478 148.267 106.4 164.288 121.711 161.335C159.26 150.829 175.856 35.8064 215.383 43.3515C242.95 49.5751 273.987 96.6621 283.23 40.9374L283.607 41.0112C274.105 97.142 243.135 50.2101 215.302 43.728C176.233 36.2641 159.326 151.53 121.778 161.711C106.4 164.745 95.3404 148.718 80.1763 150.209C69.4419 151.294 63.388 160.131 58.5597 168.333C47.685 186.768 39.6674 202.117 29.5309 219.732H29.5457Z" fill="#6B0BBB"/>
<path d="M29.9443 222.198L29.6785 222.035C40.5089 204.28 49.0064 188.88 60.8705 170.26C66.5256 161.298 73.1848 152.874 83.528 151.929C105.617 151.59 119.711 178.92 140.242 153.177C163.283 131.56 187.624 37.9474 219.761 46.7181C247.291 53.2296 277.9 100.582 287.69 44.9093L287.992 44.9758C277.981 100.988 247.454 53.739 219.702 47.0208C187.927 38.287 163.343 132.033 140.486 153.376C119.644 179.297 105.765 152.025 83.5575 152.239C73.3472 153.177 66.7471 161.534 61.1289 170.43C49.2722 189.049 40.7673 204.457 29.9443 222.205V222.198Z" fill="#6B0BBB"/>
<path d="M30.3429 224.656L30.1509 224.531C41.6753 206.65 50.7413 191.153 63.4986 172.379C69.6337 163.343 76.7137 154.86 86.9092 154.026C109.013 153.915 122.856 181.364 143.653 155.79C166.894 134.395 192.12 41.0111 224.139 50.0697C251.632 56.8766 281.813 104.495 292.141 48.8663L292.37 48.918C281.85 104.813 251.773 57.2457 224.095 50.2986C192.349 41.2695 166.908 134.786 143.83 155.945C122.76 181.659 109.131 154.232 86.9314 154.262C76.8318 155.089 69.7961 163.527 63.698 172.519C50.948 191.294 41.8747 206.79 30.3576 224.671L30.3429 224.656Z" fill="#6B0BBB"/>
<path d="M120.176 154.203C119.755 153.922 119.349 153.649 118.921 153.368C123.409 149.559 129.005 152.357 131.316 157.126C131.346 157.119 131.375 157.104 131.405 157.097C128.939 147.987 120.131 152.136 113.443 150.6C113.435 150.622 113.428 150.637 113.421 150.659C118.766 154.203 124.111 157.739 129.456 161.283C124.642 164.221 129.943 173.929 132.756 166.355C133.922 160.124 123.926 157.813 120.183 154.203H120.176Z" fill="#6B0BBB"/>
<path d="M159.37 80.8922C158.736 80.4935 158.13 80.1022 157.495 79.6962C164.007 73.945 172.334 77.9169 175.878 84.8862C175.922 84.8714 175.967 84.8567 176.004 84.8419C171.389 70.9698 159.806 78.1015 149.33 75.7686C149.315 75.7981 149.308 75.8276 149.293 75.8571C157.274 80.9291 165.254 86.001 173.243 91.0729C169.285 93.5609 169.5 102.184 174.608 102.789C177.665 101.881 179.097 97.7617 178.263 94.9193C174.461 88.0903 165.343 85.7131 159.37 80.8995V80.8922Z" fill="#6B0BBB"/>
<path d="M49.5528 170.607C49.3165 170.363 49.0877 170.135 48.844 169.891C52.3065 168.023 55.5771 170.629 56.4261 174.07C56.4482 174.07 56.4704 174.07 56.4852 174.062C56.2415 167.905 49.7226 169.167 45.6399 167.322C45.6326 167.337 45.6252 167.344 45.6178 167.359C48.6226 170.415 51.6273 173.472 54.6247 176.535C51.0662 177.783 53.1851 184.871 56.0791 180.308C57.5778 176.137 51.5683 173.649 49.5454 170.614L49.5528 170.607Z" fill="#6B0BBB"/>
<path d="M198.322 39.7115C198.056 39.4236 197.805 39.1504 197.547 38.8625C201.57 36.8618 205.202 39.9625 206.044 43.9196C206.066 43.9196 206.088 43.9196 206.111 43.9196C206.066 36.8765 198.573 38.0799 193.988 35.806C193.981 35.8208 193.966 35.8356 193.959 35.8429C197.273 39.4457 200.581 43.0559 203.896 46.6586C199.784 47.9506 201.939 56.1233 205.409 51.0218C207.277 46.319 200.514 43.2478 198.322 39.7115Z" fill="#6B0BBB"/>
<path d="M153.833 112.439C153.848 112.564 154.601 117.267 154.645 117.548H154.675L154.631 117.599C157.791 120.176 162.324 123.875 165.491 126.451C163.564 127.086 162.752 131.892 165.018 132.439C167.248 132.977 168.665 127.898 166.908 126.673H166.916C164.524 124.709 160.493 121.423 158.101 119.474C157.739 117.215 156.831 111.545 156.469 109.257C157.938 110.46 161.068 113.007 162.53 114.196C160.552 114.794 159.872 119.77 162.058 120.183C164.612 120.383 165.579 115.82 163.948 114.417H163.955C160.367 111.479 156.24 108.112 152.66 105.196C152.748 105.78 153.7 111.693 153.819 112.439H153.833ZM155.62 108.548C155.952 110.63 156.905 116.617 157.252 118.766C157.045 118.596 155.59 117.415 155.354 117.215C154.926 114.55 154.143 109.655 153.723 106.99L155.627 108.541L155.62 108.548Z" fill="#6B0BBB"/>
<path d="M60.1025 152.8C60.0877 152.889 59.6448 155.532 59.6152 155.709H59.63L59.6005 155.731C60.8408 157.695 62.62 160.508 63.8603 162.472C62.7012 162.472 61.3945 164.908 62.524 165.617C63.6314 166.311 65.3147 163.823 64.5912 162.848C63.6536 161.357 62.0737 158.854 61.1361 157.37C61.3502 156.086 61.8891 152.859 62.1032 151.56C62.679 152.475 63.9046 154.417 64.4804 155.325C63.3066 155.288 62.0368 157.85 63.1442 158.47C64.4878 159.039 65.8315 156.75 65.2113 155.702C63.8012 153.472 62.1844 150.91 60.7817 148.681C60.7226 149.013 60.1689 152.372 60.0951 152.8H60.1025ZM61.7636 151.021C61.5643 152.202 60.9958 155.606 60.7965 156.831C60.7153 156.706 60.1468 155.798 60.0508 155.65C60.3018 154.136 60.7669 151.353 61.0179 149.84L61.7636 151.021Z" fill="#6B0BBB"/>
<path d="M145.698 143.572C145.683 143.653 145.196 146.215 145.166 146.377H145.181L145.151 146.399C146.31 148.334 147.971 151.102 149.131 153.036C148.008 153.007 146.687 155.347 147.765 156.063C148.82 156.757 150.511 154.387 149.832 153.42C148.953 151.951 147.477 149.485 146.598 148.031C146.834 146.791 147.425 143.668 147.669 142.413C148.208 143.313 149.352 145.225 149.891 146.119C148.754 146.06 147.462 148.518 148.525 149.146C149.81 149.729 151.176 147.536 150.592 146.503C149.278 144.303 147.765 141.785 146.451 139.592C146.384 139.91 145.771 143.166 145.69 143.572H145.698Z" fill="#6B0BBB"/>
<path d="M77.3117 153.885C77.3117 153.944 77.1714 156.787 77.164 156.949H77.1788L77.1493 156.979C78.6701 158.861 80.848 161.549 82.3763 163.431C81.1803 163.564 80.1245 166.251 81.3796 166.849C82.6051 167.433 84.0448 164.657 83.181 163.734C82.0293 162.309 80.0876 159.91 78.9433 158.492C79.0097 157.134 79.1722 153.738 79.2386 152.364C79.9474 153.243 81.4534 155.096 82.1548 155.967C80.9366 156.078 79.9326 158.876 81.1581 159.385C82.6125 159.814 83.7273 157.281 82.9595 156.27C81.2319 154.129 79.246 151.678 77.5258 149.552C77.5037 149.899 77.3413 153.45 77.3191 153.893L77.3117 153.885Z" fill="#6B0BBB"/>
<path d="M181.903 57.814C180.301 56.2858 171.737 48.1795 169.95 46.4889L169.396 47.0721C170.733 48.3346 179.112 56.271 180.234 57.3267C177.458 57.9026 176.107 63.3805 179.009 64.547C182.065 65.1819 183.874 59.7187 181.895 57.814H181.903ZM181.88 60.7892C181.866 62.8342 178.831 65.5068 178.256 62.3027C177.458 59.1576 182.235 55.5253 181.88 60.7892Z" fill="#6B0BBB"/>
<path d="M132.962 110.497L125.395 131.109C128.178 133.435 131.759 136.432 134.557 138.773C133.221 139.666 133.671 144.745 135.229 144.863C137.067 145.026 136.86 139.6 135.591 138.854V138.839C133.295 136.853 129.884 134.04 127.558 132.084L130.991 122.73C132.977 124.391 136.233 127.115 138.226 128.784C136.89 129.677 137.34 134.756 138.898 134.875C140.736 135.037 140.53 129.611 139.26 128.865V128.85C136.964 126.864 133.553 124.052 131.227 122.095L134.66 112.741C136.646 114.402 139.902 117.127 141.896 118.795C140.559 119.688 141.01 124.768 142.567 124.886C144.406 125.048 144.199 119.622 142.929 118.876V118.861C140.633 116.876 137.222 114.063 134.897 112.106L132.97 110.49L132.962 110.497ZM126.879 131.515L126.303 131.036L129.736 121.682C129.854 121.785 130.187 122.058 130.312 122.162L126.879 131.515ZM130.548 121.527C130.445 121.438 130.068 121.121 129.972 121.047L133.405 111.693C133.524 111.796 133.856 112.069 133.981 112.173L130.548 121.527Z" fill="#6B0BBB"/>
<path d="M188.584 55.6139C191.64 58.9804 196.365 64.2148 199.407 67.5739C196.86 67.9356 195.095 73.923 197.709 74.8459C200.352 75.9237 203.039 69.9511 201.12 68.1128V68.0981C197.318 63.8825 192.231 58.2643 188.407 54.0414L187.72 54.6615L188.584 55.6139Z" fill="#6B0BBB"/>
<path d="M201.946 66.578L195.309 76.1525L195.88 76.5478L202.517 66.9734L201.946 66.578Z" fill="#6B0BBB"/>
<path d="M116.416 149.908C115.698 151.09 117.244 151.945 117.931 150.754C118.649 149.571 117.103 148.716 116.416 149.908Z" fill="#6B0BBB"/>
<path d="M130.828 104.773C131.525 103.622 130.018 102.793 129.358 103.957C128.666 105.101 130.168 105.938 130.828 104.773Z" fill="#6B0BBB"/>
<path d="M150.935 78.1224C151.561 77.0807 150.207 76.329 149.606 77.3756C148.98 78.4173 150.334 79.169 150.935 78.1224Z" fill="#6B0BBB"/>
<path d="M150.329 57.1759C150.951 56.1541 149.617 55.4152 149.026 56.4461C148.404 57.4679 149.738 58.2069 150.329 57.1759Z" fill="#6B0BBB"/>
<path d="M138.244 138.67C137.794 138.409 137.286 139.271 137.746 139.517C138.197 139.778 138.705 138.916 138.244 138.67Z" fill="#6B0BBB"/>
<path d="M155.93 126.465C154.585 125.686 153.054 128.267 154.436 129.004C155.781 129.783 157.312 127.202 155.93 126.465Z" fill="#6B0BBB"/>
<path d="M143.057 124.283C142.517 125.18 143.685 125.833 144.206 124.923C144.746 124.026 143.578 123.374 143.057 124.283Z" fill="#6B0BBB"/>
<path d="M166.626 118.806C165.634 118.224 164.501 120.14 165.514 120.691C166.506 121.273 167.638 119.357 166.626 118.806Z" fill="#6B0BBB"/>
<path d="M187.013 71.3861C187.977 69.7845 185.893 68.6329 184.966 70.2479C184.001 71.8495 186.086 73.0011 187.013 71.3861Z" fill="#6B0BBB"/>
<path d="M184.664 90.0605C183.048 89.1147 181.205 92.229 182.862 93.1123C184.478 94.0581 186.321 90.9437 184.664 90.0605Z" fill="#6B0BBB"/>
<path d="M185.604 53.2965C185.124 54.0874 186.157 54.6628 186.618 53.8592C187.098 53.0684 186.065 52.4929 185.604 53.2965Z" fill="#6B0BBB"/>
<path d="M179.41 46.4761C178.542 47.9171 180.421 48.9569 181.252 47.5024C182.121 46.0614 180.241 45.0216 179.41 46.4761Z" fill="#6B0BBB"/>
<path d="M163.229 67.7925C164.002 66.5121 162.334 65.5884 161.593 66.878C160.82 68.1585 162.488 69.0821 163.229 67.7925Z" fill="#6B0BBB"/>
<path d="M166.116 75.4856C166.703 74.5186 165.439 73.8143 164.878 74.7983C164.292 75.7654 165.556 76.4697 166.116 75.4856Z" fill="#6B0BBB"/>
<path d="M188.549 45.7906C188.078 46.5659 189.092 47.1286 189.543 46.3406C190.013 45.5654 188.999 45.0027 188.549 45.7906Z" fill="#6B0BBB"/>
<path d="M213.319 38.1084C212.637 39.2361 214.106 40.0522 214.757 38.9153C215.439 37.7877 213.97 36.9716 213.319 38.1084Z" fill="#6B0BBB"/>
<path d="M219.015 44.3015C219.717 43.1426 218.202 42.2967 217.526 43.4726C216.823 44.6316 218.338 45.4774 219.015 44.3015Z" fill="#6B0BBB"/>
<path d="M218.61 71.9657C218.938 71.4214 218.226 71.0222 217.911 71.5749C217.582 72.1192 218.295 72.5185 218.61 71.9657Z" fill="#6B0BBB"/>
<path d="M215.781 63.0932C214.825 64.6671 216.884 65.8017 217.79 64.218C218.745 62.6441 216.687 61.5095 215.781 63.0932Z" fill="#6B0BBB"/>
<path d="M228.457 60.1462C227.492 61.7357 229.576 62.8873 230.498 61.2801C231.463 59.6906 229.379 58.539 228.457 60.1462Z" fill="#6B0BBB"/>
<path d="M223.794 90.5937C222.21 89.6692 220.408 92.721 222.028 93.5908C223.611 94.5153 225.413 91.4636 223.794 90.5937Z" fill="#6B0BBB"/>
<path d="M215.81 95.1269C214.484 94.3482 212.968 96.9062 214.337 97.6344C215.664 98.4131 217.18 95.8552 215.81 95.1269Z" fill="#6B0BBB"/>
<path d="M243.588 81.3747C242.177 83.7004 245.22 85.4006 246.572 83.0367C247.982 80.711 244.939 79.0108 243.588 81.3747Z" fill="#6B0BBB"/>
<path d="M237.823 70.6378C237.055 71.9104 238.718 72.842 239.453 71.5481C240.221 70.2755 238.558 69.344 237.823 70.6378Z" fill="#6B0BBB"/>
<path d="M79.157 176.098C78.5451 177.104 79.8599 177.83 80.4407 176.815C81.0526 175.809 79.7378 175.082 79.157 176.098Z" fill="#6B0BBB"/>
<path d="M90.1392 180.503C89.7407 181.169 90.6064 181.646 90.9868 180.98C91.3853 180.314 90.5196 179.837 90.1392 180.503Z" fill="#6B0BBB"/>
<path d="M110.841 141.985C110.139 143.144 111.653 143.99 112.33 142.814C113.033 141.655 111.518 140.809 110.841 141.985Z" fill="#6B0BBB"/>
<path d="M104.931 137.113C105.85 135.594 103.867 134.487 102.98 136.027C102.06 137.546 104.044 138.654 104.931 137.113Z" fill="#6B0BBB"/>
<path d="M113.315 131.102C112.597 132.284 114.15 133.143 114.83 131.947C115.548 130.765 113.996 129.906 113.315 131.102Z" fill="#6B0BBB"/>
<path d="M130.267 120.614C129.403 122.048 131.271 123.091 132.102 121.637C132.965 120.203 131.098 119.16 130.267 120.614Z" fill="#6B0BBB"/>
<path d="M132.262 90.8434C132.743 90.0526 131.703 89.4729 131.242 90.2765C130.762 91.0673 131.801 91.647 132.262 90.8434Z" fill="#6B0BBB"/>
<path d="M163.756 51.2814C164.378 50.2596 163.037 49.5164 162.446 50.5473C161.824 51.5691 163.165 52.3123 163.756 51.2814Z" fill="#6B0BBB"/>
<path d="M134.082 80.5922C134.678 79.6095 133.388 78.8882 132.817 79.8879C132.221 80.8706 133.511 81.5919 134.082 80.5922Z" fill="#6B0BBB"/>
</svg>
