<svg width="252" height="202" viewBox="0 0 252 202" fill="none" xmlns="http://www.w3.org/2000/svg">
<path d="M34.5043 219.636L33.8046 219.376C40.6284 200.886 45.8249 184.212 52.6015 165.155C55.9741 155.643 59.9678 146.916 71.65 144.644C87.546 141.453 101.186 157.482 116.846 152.797C148.497 137.121 158.968 62.5307 180.697 32.1301C208.96 -16.6743 270.625 87.6798 276.286 9.4339L277.025 9.5125C271.05 88.9533 209.046 -15.6208 181.326 32.5154C159.542 63.026 149.118 137.939 117.066 153.512C101.021 158.261 87.7268 142.349 71.7915 145.376C60.4866 147.577 56.5951 156.107 53.3012 165.407C46.5167 184.463 41.3202 201.145 34.4964 219.636H34.5043Z" fill="#FAFE0B"/>
<path d="M35.0625 222.238L34.4493 221.994C42.0121 203.268 47.7982 186.633 55.5182 167.239C59.1345 158.025 63.647 148.843 75.3607 146.673C91.2803 143.638 104.763 159.786 120.478 155.242C152.294 139.873 163.457 65.3766 185.462 35.1883C214.164 -13.278 274.839 91.6106 281.246 13.3726L281.899 13.4512C275.201 92.7505 214.188 -12.3897 186.012 35.5342C163.952 65.8247 152.836 140.596 120.659 155.879C104.582 160.47 91.4376 144.432 75.4786 147.325C64.0951 149.432 59.6769 158.442 56.1314 167.482C48.4114 186.869 42.6174 203.52 35.0546 222.238H35.0625Z" fill="#FAFE0B"/>
<path d="M35.6284 224.848L35.1017 224.612C43.3956 205.697 49.8814 188.96 58.4426 169.33C62.3183 160.423 67.4283 150.753 79.0791 148.709C95.0223 145.84 108.355 162.105 124.11 157.703C156.075 142.648 167.946 68.2384 190.233 38.2545C219.376 -9.88173 279.053 95.5415 286.215 17.327L286.789 17.3978C281.05 77.8294 244.486 30.4558 214.368 25.676C172.364 20.8412 163.378 144.558 124.267 158.253C108.159 162.687 95.1638 146.524 79.1813 149.275C67.8135 151.272 62.79 160.792 58.9693 169.558C50.4002 189.188 43.9145 205.925 35.6284 224.84V224.848Z" fill="#FAFE0B"/>
<path d="M36.1946 227.442L35.7465 227.23C44.7715 208.103 51.8469 191.366 61.3593 171.421C65.6439 162.427 71.1863 152.663 82.7978 150.737C98.8432 148.041 111.681 164.314 127.742 160.147C159.864 145.407 172.435 71.0841 194.998 41.3125C224.581 -6.49352 283.259 99.4721 291.168 21.2656L291.655 21.3284C285.366 81.6579 249.258 33.9226 219.211 28.8913C177.223 23.6319 167.081 147.27 127.86 160.619C111.72 164.896 98.8825 148.615 82.8685 151.225C71.4929 153.111 66.0291 162.75 61.7996 171.633C52.2793 191.57 45.2117 208.315 36.1867 227.442H36.1946Z" fill="#FAFE0B"/>
<path d="M36.7607 230.044L36.3912 229.856C46.1552 210.532 53.7809 193.756 64.276 173.52C68.9851 164.432 74.9677 154.582 86.5085 152.773C109.952 150.894 126.783 178.992 146.83 150.258C169.856 125.698 189.337 24.5832 224.125 31.7136C253.794 36.7371 289.525 84.9991 296.128 25.2121L296.537 25.275C289.698 85.5101 254.038 37.4053 224.07 32.1224C182.097 26.4542 170.8 149.99 131.469 162.993C115.297 167.105 102.609 150.706 86.5635 153.174C75.2114 154.951 69.2917 164.699 64.6298 173.701C54.1346 193.929 46.5011 210.713 36.7449 230.029L36.7607 230.044Z" fill="#FAFE0B"/>
<path d="M37.3268 232.639L37.0359 232.482C47.5232 212.977 55.6678 196.106 67.1928 175.619C72.688 165.761 79.276 156.421 90.2192 154.81C113.686 153.175 130.258 181.413 150.596 152.844C173.842 128.529 194.29 27.5708 228.968 35.0313C258.621 40.3615 293.912 88.93 301.089 29.1666L301.412 29.2138C294.022 89.3546 258.818 40.8803 228.92 35.3537C194.628 27.9167 173.929 129.016 150.855 153.033C130.195 181.806 113.859 153.607 90.2585 155.132C79.4568 156.72 72.9239 165.989 67.468 175.776C55.9429 196.264 47.7905 213.134 37.3111 232.631L37.3268 232.639Z" fill="#FAFE0B"/>
<path d="M37.8927 235.241L37.6804 235.115C48.891 215.438 57.633 198.433 70.1093 177.726C76.1076 167.757 83.1437 158.331 93.9376 156.853C117.436 155.454 133.748 183.834 154.377 155.438C177.844 131.343 199.251 30.5893 233.826 38.3565C263.456 43.9932 298.306 92.8762 306.058 33.1364L306.301 33.1757C298.361 93.2221 263.613 44.3863 233.786 38.6002C199.51 30.8408 177.883 131.752 154.566 155.588C133.654 184.157 117.577 155.784 93.969 157.097C83.2773 158.567 76.2884 167.938 70.3215 177.852C57.8531 198.551 49.1032 215.563 37.8927 235.233V235.241Z" fill="#FAFE0B"/>
<path d="M129.322 155.116C128.858 154.841 128.41 154.581 127.938 154.306C132.49 149.99 138.599 152.647 141.334 157.577C141.366 157.561 141.397 157.553 141.429 157.537C138.284 147.993 129.157 152.915 121.948 151.673C121.948 151.696 121.932 151.72 121.924 151.735C127.812 155.187 133.701 158.646 139.589 162.105C134.636 165.509 140.847 175.524 143.394 167.309C144.275 160.619 133.512 158.74 129.322 155.116Z" fill="#FAFE0B"/>
<path d="M166.751 74.8893C166.051 74.4963 165.391 74.1268 164.683 73.7337C171.271 67.2479 180.359 70.9822 184.526 78.1833C184.573 78.1676 184.612 78.144 184.659 78.1283C178.952 63.6473 167.049 71.902 155.768 70.0309C155.76 70.0624 155.745 70.0938 155.737 70.1253C164.518 75.0544 173.299 79.9836 182.081 84.9128C178.016 87.7823 178.74 96.9488 184.211 97.2947C187.411 96.1469 188.692 91.6895 187.639 88.7099C183.197 81.6739 173.362 79.6692 166.743 74.8972L166.751 74.8893Z" fill="#FAFE0B"/>
<path d="M55.1877 176.649C54.9204 176.405 54.6609 176.169 54.3936 175.926C57.9706 173.74 61.5948 176.319 62.6954 179.927C62.719 179.927 62.7347 179.927 62.7583 179.919C62.1451 173.386 55.282 175.108 50.8402 173.379C50.8324 173.394 50.8245 173.402 50.8167 173.418C54.1892 176.492 57.554 179.573 60.9266 182.647C57.2159 184.18 59.881 191.594 62.6954 186.578C64.0476 182.058 57.5147 179.762 55.1877 176.649Z" fill="#FAFE0B"/>
<path d="M205.775 28.8441C205.477 28.5533 205.194 28.2781 204.895 27.9872C209.054 25.6287 213.102 28.7105 214.219 32.8692C214.242 32.8692 214.266 32.8692 214.289 32.8614C213.833 25.3772 205.941 27.0832 200.933 24.937C200.925 24.9527 200.917 24.9684 200.901 24.9841C204.635 28.624 208.362 32.2639 212.096 35.9116C207.804 37.5233 210.563 46.0845 213.959 40.4635C215.673 35.3535 208.307 32.484 205.768 28.8441H205.775Z" fill="#FAFE0B"/>
<path d="M162.694 108.749C162.734 108.93 163.779 113.788 163.858 114.134H163.889L163.85 114.189C167.356 116.744 172.396 120.415 175.91 122.97C173.897 123.764 173.307 128.914 175.76 129.362C178.158 129.802 179.377 124.323 177.435 123.12H177.443C174.785 121.17 170.312 117.908 167.655 115.982C167.136 113.599 165.847 107.617 165.328 105.211C166.963 106.406 170.438 108.93 172.057 110.117C169.99 110.872 169.55 116.202 171.908 116.508C174.636 116.571 175.399 111.666 173.59 110.266C169.605 107.35 165.021 104.016 161.051 101.115C161.177 101.729 162.529 107.963 162.702 108.749H162.694ZM164.361 104.512C164.833 106.705 166.193 113.018 166.688 115.282C166.452 115.117 164.848 113.938 164.573 113.741C163.968 110.927 162.852 105.777 162.246 102.963L164.361 104.504V104.512Z" fill="#FAFE0B"/>
<path d="M65.3686 157.105C65.3607 157.191 65.0463 160.037 65.0227 160.226H65.0384L65.007 160.25C66.4378 162.262 68.4896 165.155 69.9283 167.168C68.7019 167.231 67.4519 169.904 68.6862 170.595C69.8968 171.271 71.5477 168.528 70.7223 167.529C69.6374 165.996 67.8135 163.426 66.7286 161.908C66.878 160.533 67.2632 157.066 67.4205 155.674C68.0887 156.61 69.5038 158.607 70.1641 159.534C68.9141 159.566 67.7113 162.364 68.922 162.954C70.3843 163.481 71.6814 160.973 70.9581 159.888C69.3308 157.592 67.4598 154.967 65.8403 152.679C65.801 153.033 65.4 156.641 65.3529 157.097L65.3686 157.105ZM67.0352 155.116C66.8937 156.39 66.4849 160.037 66.3434 161.35C66.2491 161.217 65.5887 160.289 65.4787 160.14C65.6595 158.512 65.9897 155.525 66.1705 153.905L67.0352 155.116Z" fill="#FAFE0B"/>
<path d="M155.839 142.326C155.823 142.42 155.454 145.164 155.43 145.344H155.446L155.414 145.368C156.759 147.357 158.685 150.203 160.037 152.192C158.842 152.223 157.568 154.794 158.756 155.486C159.919 156.17 161.578 153.544 160.8 152.553C159.778 151.044 158.064 148.513 157.05 147.011C157.23 145.675 157.679 142.326 157.859 140.973C158.48 141.901 159.817 143.866 160.438 144.786C159.219 144.786 157.993 147.475 159.157 148.08C160.564 148.623 161.877 146.217 161.201 145.148C159.675 142.892 157.922 140.289 156.397 138.041C156.35 138.387 155.878 141.877 155.823 142.318L155.839 142.326Z" fill="#FAFE0B"/>
<path d="M39.9207 198.182C39.9207 198.276 39.8421 201.043 39.8343 201.224H39.85L39.8185 201.248C41.3673 203.079 43.5842 205.713 45.1329 207.553C43.9459 207.71 42.9553 210.399 44.2053 210.965C45.4317 211.515 46.8075 208.74 45.927 207.836C44.7556 206.444 42.7823 204.101 41.6188 202.718C41.6581 201.373 41.7525 197.993 41.7918 196.633C42.5072 197.49 44.0402 199.306 44.7556 200.147C43.5449 200.281 42.6094 203.079 43.8279 203.559C45.2823 203.952 46.3358 201.421 45.5496 200.43C43.7965 198.339 41.7761 195.949 40.023 193.866C40.0072 194.212 39.9129 197.734 39.905 198.182H39.9207Z" fill="#FAFE0B"/>
<path d="M83.733 157.262C83.733 157.325 83.7487 160.36 83.7566 160.533H83.7723L83.7408 160.564C85.4625 162.475 87.9389 165.21 89.6684 167.121C88.4027 167.333 87.4358 170.25 88.8037 170.816C90.1401 171.366 91.5159 168.331 90.5332 167.396C89.2282 165.942 87.027 163.504 85.722 162.066C85.7141 160.619 85.6905 156.995 85.6826 155.533C86.4845 156.421 88.1983 158.316 88.9924 159.196C87.7031 159.385 86.799 162.42 88.1276 162.883C89.6999 163.253 90.7376 160.501 89.8571 159.464C87.8996 157.294 85.6433 154.794 83.6937 152.632C83.6937 153.001 83.7173 156.783 83.7251 157.262H83.733Z" fill="#FAFE0B"/>
<path d="M189.369 49.0485C187.576 47.5155 178.001 39.3945 176.004 37.6964L175.454 38.3489C176.947 39.6146 186.318 47.5626 187.568 48.6239C184.652 49.3944 183.528 55.2984 186.68 56.3754C189.966 56.8786 191.578 50.9588 189.361 49.0485H189.369ZM189.518 52.2088C189.62 54.3865 186.546 57.4053 185.752 54.0327C184.722 50.7387 189.597 46.5957 189.518 52.2088Z" fill="#FAFE0B"/>
<path d="M58.8278 199.408C57.7193 198.363 51.8389 192.804 50.6046 191.649L50.2273 192.05C51.1471 192.915 56.9096 198.355 57.68 199.078C55.7775 199.479 54.8499 203.245 56.8467 204.039C58.9457 204.471 60.18 200.721 58.8199 199.408H58.8278ZM58.8121 201.452C58.8042 202.859 56.7209 204.691 56.3278 202.498C55.7225 200.352 59.1108 197.914 58.8121 201.452Z" fill="#FAFE0B"/>
<path d="M140.383 107.9L133.536 130.25C136.633 132.561 140.611 135.541 143.724 137.868C142.356 138.898 143.127 144.267 144.794 144.298C146.759 144.361 146.224 138.607 144.825 137.891V137.876C142.262 135.895 138.481 133.104 135.894 131.162L139 121.02C141.209 122.671 144.825 125.376 147.042 127.035C145.674 128.064 146.444 133.434 148.111 133.465C150.076 133.528 149.542 127.774 148.143 127.058V127.042C145.58 125.061 141.798 122.27 139.212 120.329L142.317 110.187C144.526 111.838 148.143 114.543 150.36 116.201C148.992 117.231 149.762 122.601 151.429 122.632C153.394 122.695 152.859 116.94 151.46 116.225V116.209C148.897 114.228 145.116 111.437 142.529 109.495L140.383 107.892V107.9ZM135.14 130.604L134.495 130.124L137.6 119.983C137.734 120.085 138.103 120.36 138.245 120.462L135.14 130.604ZM138.457 119.77C138.347 119.684 137.923 119.37 137.812 119.291L140.918 109.15C141.051 109.252 141.421 109.527 141.562 109.629L138.457 119.77Z" fill="#FAFE0B"/>
<path d="M196.342 46.3204C199.785 49.7244 205.115 55.0153 208.543 58.4114C205.862 58.946 204.329 65.4161 207.159 66.2415C210.029 67.2321 212.544 60.7306 210.39 58.8831V58.8674C206.098 54.6064 200.367 48.9226 196.059 44.6616L195.367 45.3613L196.342 46.3283V46.3204Z" fill="#FAFE0B"/>
<path d="M211.166 57.1407L204.665 67.7068L205.295 68.094L211.795 57.5279L211.166 57.1407Z" fill="#FAFE0B"/>
<path d="M29.7717 223.464L29.0878 223.173C36.91 205.076 43.0027 188.716 50.8092 170.053C54.6928 160.737 59.1503 152.247 70.9426 150.603C86.988 148.284 99.7394 165.029 115.628 161.201C148.088 147.27 162.608 73.356 185.957 44.1897C216.837 -3.00309 272.725 104.558 282.646 26.7292L283.377 26.8472C273.086 105.84 216.868 -1.9575 186.562 44.6064C163.151 73.8827 148.662 148.119 115.801 161.924C99.5193 165.792 87.1138 149.173 71.0369 151.335C59.6298 152.923 55.2824 161.224 51.4853 170.328C43.6788 188.991 37.5782 205.359 29.756 223.456L29.7717 223.464Z" fill="#6B0BBB"/>
<path d="M30.196 226.098L29.5985 225.815C38.1676 207.529 44.8578 191.232 53.6234 172.294C57.7349 163.292 62.7427 154.369 74.5586 152.836C90.6198 150.674 103.198 167.537 119.141 163.85C151.743 150.242 166.955 76.4616 190.571 47.5075C221.876 0.676369 276.742 108.71 287.402 30.9433L288.054 31.0533C277.04 109.873 221.852 1.56473 191.106 47.8849C167.427 76.9333 152.254 150.989 119.291 164.487C102.986 168.198 90.7377 151.461 74.6451 153.481C63.1594 154.967 58.2617 163.717 54.2287 172.561C45.4631 191.499 38.7729 207.804 30.2039 226.09L30.196 226.098Z" fill="#6B0BBB"/>
<path d="M30.6128 228.732L30.1018 228.472C39.4099 210.037 46.7997 193.677 56.4222 174.55C60.7775 165.871 66.4064 156.492 78.1515 155.085C94.2284 153.088 106.657 170.053 122.624 166.515C155.368 153.229 171.271 79.5746 195.155 50.8485C226.876 4.37111 280.72 112.892 292.135 35.1805L292.701 35.2827C283.676 95.3055 249.745 46.0137 219.942 39.6065C178.26 32.4918 162.553 155.533 122.758 167.081C106.437 170.635 94.3384 153.787 78.2301 155.666C66.768 157.042 61.2335 166.272 56.9411 174.817C47.3186 193.952 39.9287 210.312 30.6207 228.747L30.6128 228.732Z" fill="#6B0BBB"/>
<path d="M31.0373 231.357L30.6049 231.121C40.6598 212.513 48.6314 196.185 59.2209 176.79C63.985 168.04 70.0541 158.599 81.7521 157.31C97.9154 155.486 109.849 172.443 126.123 169.157C159 156.185 175.595 82.6642 199.754 54.1662C231.9 8.04252 284.721 117.051 296.875 39.3865L297.363 39.4808C287.795 99.3779 254.336 49.748 224.62 43.0893C182.977 35.55 166.122 158.457 126.233 169.644C109.881 173.033 97.9469 156.075 81.815 157.813C70.3529 159.078 64.3702 168.402 59.6612 177.042C49.0717 196.428 41.1001 212.773 31.0452 231.373L31.0373 231.357Z" fill="#6B0BBB"/>
<path d="M31.4619 233.983L31.1003 233.779C41.902 215.013 50.4318 198.677 62.0118 179.047C67.2083 170.226 73.7177 160.722 85.3449 159.542C101.532 157.884 113.301 174.943 129.605 171.798C169.589 160.611 187.262 38.1288 229.353 46.1632C258.708 52.7905 291.757 102.931 301.6 43.5925L302.001 43.6711C291.883 103.442 258.904 53.4666 229.266 46.5642C187.663 38.6162 169.66 161.358 129.676 172.199C113.301 175.43 101.524 158.363 85.3763 159.951C73.9457 161.107 67.4992 170.517 62.3578 179.251C50.7777 198.881 42.2401 215.226 31.4462 233.983H31.4619Z" fill="#6B0BBB"/>
<path d="M31.8863 236.609L31.6033 236.436C43.1362 217.529 52.1848 201.13 64.8183 181.303C70.8403 171.759 77.9314 162.789 88.9454 161.783C112.467 161.421 127.475 190.525 149.338 163.111C173.874 140.093 199.793 40.4086 234.014 49.7481C263.33 56.682 295.924 107.106 306.348 47.822L306.671 47.8928C296.01 107.538 263.503 57.2244 233.951 50.0704C200.115 40.7702 173.936 140.596 149.597 163.324C127.404 190.926 112.624 161.885 88.9768 162.113C78.1043 163.111 71.0761 172.011 65.0935 181.484C52.4679 201.311 43.4113 217.718 31.8863 236.617V236.609Z" fill="#6B0BBB"/>
<path d="M32.3109 239.227L32.1064 239.093C44.3783 220.052 54.0323 203.551 67.617 183.559C74.15 173.937 81.6892 164.904 92.5459 164.015C116.083 163.898 130.824 193.127 152.97 165.894C177.718 143.112 204.581 43.6711 238.676 53.3172C267.953 60.5655 300.09 111.272 311.089 52.0358L311.332 52.0908C300.13 111.61 268.102 60.9586 238.629 53.5609C204.824 43.9462 177.734 143.528 153.158 166.059C130.722 193.441 116.209 164.236 92.5695 164.267C81.8149 165.148 74.3229 174.133 67.8293 183.709C54.2524 203.701 44.5906 220.202 32.3266 239.243L32.3109 239.227Z" fill="#6B0BBB"/>
<path d="M127.97 164.204C127.522 163.905 127.09 163.614 126.634 163.316C131.413 159.259 137.372 162.239 139.833 167.317C139.865 167.309 139.896 167.294 139.927 167.286C137.302 157.585 127.923 162.003 120.8 160.368C120.792 160.391 120.785 160.407 120.777 160.43C126.468 164.204 132.16 167.97 137.852 171.743C132.726 174.872 138.371 185.21 141.366 177.144C142.608 170.509 131.964 168.048 127.978 164.204H127.97Z" fill="#6B0BBB"/>
<path d="M169.707 86.1386C169.031 85.7141 168.386 85.2975 167.71 84.8651C174.644 78.7409 183.512 82.9705 187.285 90.3917C187.332 90.376 187.379 90.3603 187.419 90.3446C182.505 75.5727 170.171 83.167 159.015 80.6827C158.999 80.7142 158.991 80.7456 158.976 80.7771C167.474 86.1779 175.972 91.5788 184.479 96.9797C180.265 99.629 180.493 108.811 185.933 109.456C189.188 108.489 190.713 104.102 189.824 101.076C185.776 93.8036 176.067 91.2722 169.707 86.1465V86.1386Z" fill="#6B0BBB"/>
<path d="M52.7667 181.672C52.5151 181.413 52.2714 181.169 52.012 180.91C55.699 178.921 59.1817 181.696 60.0858 185.359C60.1093 185.359 60.1329 185.359 60.1487 185.352C59.8892 178.795 52.9475 180.139 48.6001 178.174C48.5922 178.19 48.5843 178.198 48.5765 178.213C51.7761 181.468 54.9758 184.723 58.1675 187.985C54.3783 189.314 56.6345 196.861 59.7163 192.002C61.3122 187.561 54.9129 184.911 52.7588 181.68L52.7667 181.672Z" fill="#6B0BBB"/>
<path d="M211.184 42.2872C210.901 41.9806 210.634 41.6897 210.359 41.3831C214.643 39.2526 218.511 42.5545 219.408 46.7682C219.431 46.7682 219.455 46.7682 219.478 46.7682C219.431 39.2683 211.452 40.5498 206.57 38.1284C206.562 38.1441 206.546 38.1599 206.538 38.1677C210.068 42.0041 213.59 45.8485 217.12 49.6849C212.741 51.0607 215.037 59.7634 218.731 54.3311C220.72 49.3233 213.519 46.0529 211.184 42.2872Z" fill="#6B0BBB"/>
<path d="M163.811 119.731C163.826 119.865 164.628 124.873 164.675 125.171H164.707L164.66 125.226C168.024 127.97 172.851 131.909 176.224 134.652C174.172 135.329 173.307 140.446 175.721 141.028C178.095 141.602 179.604 136.193 177.733 134.888H177.741C175.194 132.797 170.902 129.299 168.355 127.223C167.969 124.818 167.002 118.78 166.617 116.343C168.182 117.624 171.515 120.337 173.072 121.602C170.965 122.239 170.241 127.538 172.568 127.978C175.289 128.19 176.318 123.332 174.581 121.838H174.589C170.768 118.709 166.374 115.124 162.561 112.019C162.655 112.64 163.669 118.937 163.795 119.731H163.811ZM165.713 115.588C166.067 117.805 167.081 124.181 167.451 126.469C167.23 126.288 165.682 125.03 165.43 124.818C164.974 121.98 164.141 116.767 163.693 113.929L165.721 115.58L165.713 115.588Z" fill="#6B0BBB"/>
<path d="M64.0006 162.711C63.9849 162.805 63.5132 165.619 63.4817 165.808H63.4974L63.466 165.832C64.7867 167.923 66.6814 170.918 68.0021 173.009C66.7678 173.009 65.3764 175.603 66.5792 176.358C67.7584 177.097 69.5508 174.448 68.7804 173.41C67.782 171.822 66.0996 169.157 65.1012 167.577C65.3292 166.209 65.9031 162.773 66.1311 161.39C66.7443 162.365 68.0493 164.432 68.6625 165.399C67.4125 165.36 66.0603 168.088 67.2395 168.748C68.6703 169.354 70.1011 166.916 69.4408 165.8C67.9392 163.426 66.2175 160.698 64.7239 158.324C64.661 158.678 64.0713 162.255 63.9927 162.711H64.0006ZM65.7694 160.816C65.5572 162.074 64.9518 165.698 64.7396 167.003C64.6531 166.869 64.0477 165.902 63.9455 165.745C64.2128 164.134 64.7081 161.17 64.9754 159.558L65.7694 160.816Z" fill="#6B0BBB"/>
<path d="M155.147 152.883C155.131 152.97 154.613 155.698 154.581 155.871H154.597L154.565 155.894C155.8 157.954 157.568 160.902 158.803 162.962C157.608 162.931 156.201 165.423 157.348 166.185C158.473 166.924 160.273 164.401 159.55 163.371C158.614 161.806 157.042 159.181 156.106 157.632C156.358 156.311 156.987 152.986 157.246 151.649C157.82 152.608 159.039 154.644 159.612 155.596C158.402 155.533 157.026 158.151 158.158 158.819C159.526 159.44 160.98 157.105 160.359 156.005C158.96 153.662 157.348 150.981 155.949 148.646C155.878 148.984 155.226 152.451 155.139 152.883H155.147Z" fill="#6B0BBB"/>
<path d="M36.3515 202.34L36.3279 202.623L36.1 205.375H36.1157L36.0842 205.398C37.5308 207.317 39.5983 210.06 41.0449 211.978C39.8499 212.073 38.7179 214.699 39.9364 215.335C41.1314 215.956 42.6565 213.252 41.831 212.309C40.7383 210.854 38.8987 208.409 37.8059 206.963C37.916 205.618 38.199 202.254 38.3091 200.894C38.9773 201.79 40.4081 203.684 41.0763 204.565C39.8656 204.628 38.7729 207.379 39.9678 207.922C41.3986 208.394 42.5936 205.925 41.8625 204.895C40.2273 202.718 38.3405 200.21 36.7053 198.04C36.6739 198.386 36.383 201.9 36.3515 202.34Z" fill="#6B0BBB"/>
<path d="M82.326 163.866C82.326 163.929 82.1766 166.956 82.1687 167.128H82.1845L82.153 167.16C83.7725 169.165 86.0917 172.026 87.719 174.031C86.4454 174.172 85.3212 177.034 86.6577 177.671C87.9627 178.292 89.4957 175.336 88.5759 174.353C87.3495 172.836 85.2819 170.281 84.0634 168.772C84.1341 167.325 84.3071 163.709 84.3778 162.246C85.1326 163.182 86.7363 165.155 87.4831 166.083C86.186 166.201 85.1168 169.18 86.4218 169.723C87.9705 170.179 89.1576 167.482 88.34 166.405C86.5004 164.125 84.3857 161.515 82.554 159.251C82.5304 159.621 82.3574 163.402 82.3338 163.874L82.326 163.866Z" fill="#6B0BBB"/>
<path d="M193.7 61.5636C191.994 59.9363 182.875 51.3043 180.972 49.504L180.383 50.1251C181.806 51.4694 190.729 59.9206 191.924 61.0448C188.968 61.658 187.529 67.4912 190.619 68.7333C193.873 69.4094 195.799 63.5919 193.692 61.5636H193.7ZM193.677 64.7318C193.661 66.9095 190.43 69.7554 189.817 66.3434C188.968 62.9944 194.054 59.1265 193.677 64.7318Z" fill="#6B0BBB"/>
<path d="M55.1644 204.597C54.1188 203.488 48.545 197.623 47.3736 196.397L46.9727 196.774C47.8453 197.686 53.3012 203.433 54.0323 204.196C52.1062 204.494 50.9821 208.197 52.9317 209.101C55.0072 209.652 56.4458 205.964 55.1565 204.589L55.1644 204.597ZM55.0386 206.633C54.9521 208.032 52.7745 209.754 52.4993 207.537C52.0119 205.367 55.5339 203.111 55.0386 206.633Z" fill="#6B0BBB"/>
<path d="M141.586 117.664L133.528 139.613C136.492 142.089 140.305 145.281 143.284 147.773C141.861 148.724 142.341 154.133 144 154.259C145.957 154.432 145.737 148.654 144.385 147.86V147.844C141.94 145.729 138.308 142.734 135.831 140.651L139.487 130.69C141.602 132.459 145.069 135.36 147.191 137.137C145.768 138.088 146.248 143.497 147.907 143.622C149.864 143.795 149.644 138.017 148.292 137.223V137.207C145.847 135.093 142.215 132.097 139.739 130.014L143.394 120.053C145.509 121.822 148.976 124.723 151.098 126.5C149.676 127.451 150.155 132.86 151.814 132.986C153.771 133.159 153.551 127.38 152.199 126.586V126.571C149.754 124.456 146.122 121.461 143.646 119.377L141.594 117.656L141.586 117.664ZM135.108 140.045L134.495 139.534L138.151 129.574C138.276 129.684 138.63 129.975 138.764 130.085L135.108 140.045ZM139.015 129.409C138.905 129.314 138.504 128.976 138.402 128.898L142.058 118.937C142.184 119.047 142.537 119.338 142.671 119.448L139.015 129.409Z" fill="#6B0BBB"/>
<path d="M200.815 59.221C204.07 62.8059 209.101 68.3797 212.34 71.9567C209.628 72.3419 207.749 78.7176 210.532 79.7003C213.346 80.8481 216.208 74.4881 214.164 72.5306V72.5149C210.115 68.0259 204.699 62.0433 200.626 57.5465L199.895 58.2069L200.815 59.221Z" fill="#6B0BBB"/>
<path d="M215.044 70.8962L207.976 81.0917L208.584 81.5127L215.651 71.3173L215.044 70.8962Z" fill="#6B0BBB"/>
<path d="M123.967 159.63C123.202 160.889 124.848 161.8 125.58 160.531C126.344 159.272 124.698 158.361 123.967 159.63Z" fill="#6B0BBB"/>
<path d="M139.313 111.569C140.056 110.343 138.451 109.46 137.748 110.7C137.011 111.917 138.61 112.809 139.313 111.569Z" fill="#6B0BBB"/>
<path d="M160.724 83.1892C161.39 82.0799 159.949 81.2795 159.309 82.3939C158.642 83.5032 160.084 84.3037 160.724 83.1892Z" fill="#6B0BBB"/>
<path d="M160.079 60.8841C160.741 59.796 159.321 59.0091 158.691 60.107C158.029 61.195 159.45 61.9819 160.079 60.8841Z" fill="#FAFE0B"/>
<path d="M147.211 147.664C146.731 147.386 146.19 148.304 146.68 148.565C147.16 148.843 147.701 147.926 147.211 147.664Z" fill="#FAFE0B"/>
<path d="M166.044 134.667C164.611 133.837 162.981 136.586 164.453 137.371C165.885 138.201 167.515 135.452 166.044 134.667Z" fill="#6B0BBB"/>
<path d="M152.336 132.344C151.76 133.299 153.004 133.994 153.559 133.025C154.134 132.07 152.89 131.375 152.336 132.344Z" fill="#6B0BBB"/>
<path d="M177.433 126.512C176.377 125.892 175.171 127.932 176.248 128.518C177.305 129.138 178.511 127.098 177.433 126.512Z" fill="#6B0BBB"/>
<path d="M199.142 76.0159C200.169 74.3104 197.949 73.0841 196.962 74.8039C195.935 76.5094 198.155 77.7357 199.142 76.0159Z" fill="#6B0BBB"/>
<path d="M196.641 95.9015C194.92 94.8943 192.957 98.2107 194.722 99.1512C196.443 100.158 198.405 96.842 196.641 95.9015Z" fill="#6B0BBB"/>
<path d="M197.642 56.7531C197.131 57.5952 198.231 58.208 198.721 57.3523C199.233 56.5101 198.133 55.8973 197.642 56.7531Z" fill="#6B0BBB"/>
<path d="M191.046 49.4903C190.121 51.0248 192.123 52.132 193.008 50.5833C193.932 49.0488 191.931 47.9416 191.046 49.4903Z" fill="#6B0BBB"/>
<path d="M173.816 72.1894C174.639 70.8259 172.863 69.8423 172.073 71.2156C171.25 72.579 173.026 73.5626 173.816 72.1894Z" fill="#6B0BBB"/>
<path d="M176.89 80.3814C177.515 79.3516 176.168 78.6016 175.572 79.6495C174.947 80.6793 176.294 81.4293 176.89 80.3814Z" fill="#FAFE0B"/>
<path d="M200.777 48.7604C200.277 49.5859 201.356 50.1851 201.836 49.3461C202.336 48.5206 201.257 47.9213 200.777 48.7604Z" fill="#FAFE0B"/>
<path d="M227.154 40.58C226.428 41.7808 227.993 42.6498 228.686 41.4392C229.412 40.2384 227.848 39.3694 227.154 40.58Z" fill="#FAFE0B"/>
<path d="M233.219 47.1747C233.967 45.9406 232.354 45.0399 231.634 46.2921C230.886 47.5262 232.499 48.4269 233.219 47.1747Z" fill="#6B0BBB"/>
<path d="M232.789 76.6332C233.138 76.0536 232.379 75.6285 232.044 76.2171C231.694 76.7967 232.453 77.2218 232.789 76.6332Z" fill="#6B0BBB"/>
<path d="M229.776 67.1852C228.758 68.8612 230.95 70.0694 231.915 68.3829C232.933 66.7069 230.741 65.4987 229.776 67.1852Z" fill="#FAFE0B"/>
<path d="M243.274 64.047C242.246 65.7397 244.466 66.966 245.447 65.2545C246.475 63.5619 244.256 62.3356 243.274 64.047Z" fill="#FAFE0B"/>
<path d="M72.3966 202.167C72.8699 201.383 71.8512 200.812 71.3917 201.605C70.9184 202.388 71.937 202.96 72.3966 202.167Z" fill="#FAFE0B"/>
<path d="M84.2909 187.519C83.6393 188.59 85.0393 189.364 85.6578 188.282C86.3094 187.211 84.9093 186.438 84.2909 187.519Z" fill="#FAFE0B"/>
<path d="M95.9854 192.21C95.5611 192.919 96.4829 193.427 96.888 192.717C97.3123 192.008 96.3905 191.5 95.9854 192.21Z" fill="#6B0BBB"/>
<path d="M118.03 151.194C117.282 152.428 118.895 153.328 119.616 152.076C120.364 150.842 118.751 149.941 118.03 151.194Z" fill="#6B0BBB"/>
<path d="M111.736 146.006C112.716 144.389 110.604 143.209 109.659 144.849C108.68 146.467 110.791 147.647 111.736 146.006Z" fill="#FAFE0B"/>
<path d="M120.665 139.604C119.9 140.863 121.553 141.779 122.278 140.505C123.042 139.246 121.389 138.331 120.665 139.604Z" fill="#6B0BBB"/>
<path d="M138.715 128.437C137.796 129.963 139.785 131.074 140.67 129.526C141.589 127.999 139.6 126.888 138.715 128.437Z" fill="#6B0BBB"/>
<path d="M140.84 96.7352C141.352 95.8931 140.245 95.2758 139.754 96.1315C139.243 96.9736 140.35 97.5909 140.84 96.7352Z" fill="#FAFE0B"/>
<path d="M174.377 54.6074C175.039 53.5193 173.611 52.7279 172.982 53.8257C172.32 54.9138 173.747 55.7052 174.377 54.6074Z" fill="#6B0BBB"/>
<path d="M142.778 85.8191C143.413 84.7727 142.039 84.0046 141.432 85.0692C140.796 86.1156 142.17 86.8837 142.778 85.8191Z" fill="#6B0BBB"/>
</svg>
